inDegrees=no
num_controls=7
num_derivatives=13
num_iterations=131
num_multipliers=7
num_parameters=0
num_slacks=7
num_states=26
objective=5.999618
objective_accelerations=0.624758
objective_balance=0.030202
objective_effort=0.620593
objective_height=4.699944
objective_ligament=0.024120
solver_duration=1660.322710
status=Solve_Succeeded
success=true
DataType=double
version=3
OpenSimVersion=4.4-2022-07-23-0e9fedc
endheader
time	/jointset/ground_pelvis/pelvis_tilt/value	/jointset/ground_pelvis/pelvis_tx/value	/jointset/ground_pelvis/pelvis_ty/value	/jointset/hip_l/hip_flexion_l/value	/jointset/hip_l/hip_adduction_l/value	/jointset/hip_l/hip_rotation_l/value	/jointset/back/lumbar_extension/value	/jointset/patellofemoral_l/patellar_flexion_l/value	/jointset/knee_l/knee_flexion_l/value	/jointset/knee_l/knee_adduction_l/value	/jointset/knee_l/knee_rotation_l/value	/jointset/ankle_l/ankle_angle_l/value	/jointset/subtalar_l/subtalar_angle_l/value	/jointset/ground_pelvis/pelvis_tilt/speed	/jointset/ground_pelvis/pelvis_tx/speed	/jointset/ground_pelvis/pelvis_ty/speed	/jointset/hip_l/hip_flexion_l/speed	/jointset/hip_l/hip_adduction_l/speed	/jointset/hip_l/hip_rotation_l/speed	/jointset/back/lumbar_extension/speed	/jointset/patellofemoral_l/patellar_flexion_l/speed	/jointset/knee_l/knee_flexion_l/speed	/jointset/knee_l/knee_adduction_l/speed	/jointset/knee_l/knee_rotation_l/speed	/jointset/ankle_l/ankle_angle_l/speed	/jointset/subtalar_l/subtalar_angle_l/speed	/forceset/tau_hip_flexion_l	/forceset/tau_hip_adduction_l	/forceset/tau_hip_rotation_l	/forceset/tau_knee_flexion_l	/forceset/tau_ankle_angle_l	/forceset/tau_subtalar_angle_l	/forceset/tau_lumbar_extension	lambda_cid13_p0	lambda_cid13_p1	lambda_cid13_p2	lambda_cid13_p3	lambda_cid13_p4	lambda_cid13_p5	lambda_cid14_p0	/jointset/ground_pelvis/pelvis_tilt/accel	/jointset/ground_pelvis/pelvis_tx/accel	/jointset/ground_pelvis/pelvis_ty/accel	/jointset/hip_l/hip_flexion_l/accel	/jointset/hip_l/hip_adduction_l/accel	/jointset/hip_l/hip_rotation_l/accel	/jointset/back/lumbar_extension/accel	/jointset/patellofemoral_l/patellar_flexion_l/accel	/jointset/knee_l/knee_flexion_l/accel	/jointset/knee_l/knee_adduction_l/accel	/jointset/knee_l/knee_rotation_l/accel	/jointset/ankle_l/ankle_angle_l/accel	/jointset/subtalar_l/subtalar_angle_l/accel	gamma_cid13_p0	gamma_cid13_p1	gamma_cid13_p2	gamma_cid13_p3	gamma_cid13_p4	gamma_cid13_p5	gamma_cid14_p0
1.5	-0.09317503641220304	-0.06765702673235459	0.8315961587865683	0.8476277837660403	-0.3237975907237739	-0.1300951567954567	-0.8138600142821455	0.7429917734402071	0.7429917734407148	-0.1200925797293314	-0.1706206158189267	0.03832816611116648	-0.01796510657192401	0.5972272030127641	0.338637460975114	0.4966071697120717	-2.426360332735229	0.08139849777590683	-0.5974066895735801	0.824172657775515	-1.895683012097836	-1.895683012097594	-0.1377080897056976	0.03869578977903724	-0.1686633927686474	0.03796330687021724	-0.2658736266729311	0.006964315432583814	-0.001019380568361898	-0.1984507484334275	0.1381898984115359	0.05140539761284228	0.3193464657064407	1.873323573758973	-23.86436702618099	4.733575823754614	-14.77935328456223	-669.8433222511933	-79.59618892460401	-16.41734620453395	0.2474113074929279	0.9290379808280743	-0.6161345359794651	-1.087169735783113	0.5395995884994395	-0.1677847589719946	2.291691092679894	-0.9471970190753928	-0.9471970190753775	-0.09535426832484865	0.2523458000012653	-0.01979104822835714	0.549760258117778	1.562877587569351e-07	1.026091207203192e-06	-4.374122442018516e-07	6.240381535596783e-08	3.37269011503073e-07	-3.055797762891045e-08	2.076545101250131e-07
1.51	-0.08719082224678402	-0.06422441942968102	0.8365304860737379	0.8233118011101187	-0.3229575914165011	-0.1360779145885667	-0.8055051429700792	0.7239896410279395	0.7239896410279772	-0.1214755945383202	-0.170222667716342	0.03664074603681019	-0.01755896130628874	0.5995279231170001	0.3478564011707374	0.490158152077197	-2.436535076840328	0.08659612887172183	-0.5990702468498162	0.8467059796281747	-1.90449093244473	-1.904490932444473	-0.1388851974727187	0.04089962475469904	-0.1687600155290018	0.04327680832851701	-0.2564411691509549	0.00657572595410006	-0.0008749681612800472	-0.1954300526994039	0.1363404834537148	0.05051170425273929	0.3109123021048391	1.592378299442495	-23.48282763859355	4.736465624319766	-14.43655212106005	-664.3809447670627	-79.49402702065684	-17.06254584158874	0.2082526927718985	0.9141961885301381	-0.6742305695889111	-0.9374467783184051	0.5089330044462345	-0.1542457227713336	2.219808979965811	-0.8097508154097723	-0.8097508154075935	-0.1272333956764518	0.2051612478693059	0.004526975308660085	0.5236639623666649	1.536345961355045e-07	1.110500261019828e-06	-3.938611156759299e-07	6.711238353867322e-08	3.626805622540778e-07	-7.293610706156565e-09	2.090684680185494e-07
1.52	-0.08118623081415234	-0.06070044789513138	0.8413973341460892	0.7989031070070495	-0.3220657981714056	-0.1420750288566035	-0.7969278071898062	0.7049069971576245	0.70490699715719	-0.1228700492979434	-0.1698025294836876	0.03495418470789955	-0.01709937725153438	0.6013026564565694	0.3569103073503277	0.4831113267484463	-2.444902622163235	0.09175728534048541	-0.6002779845589263	0.8686655514171184	-1.911785303708158	-1.911785303707886	-0.1399960798311682	0.04313381579118952	-0.1684916436794501	0.04865106469404046	-0.2470087116289936	0.006187136475611391	-0.000730555754263281	-0.1924093569653782	0.1344910684958953	0.04961801089263258	0.3024781385032248	1.311062863656826	-23.10152429949655	4.739736963686476	-14.12493053278343	-658.952095271752	-79.42513128875301	-17.69964407786354	0.1422139545594668	0.8960311776216175	-0.7356960747546379	-0.7257299793449355	0.5323046630891486	-0.07662084554675175	2.176941079936609	-0.6444872023820466	-0.6444872023820424	-0.08210918661055444	0.2584170121669913	0.05320787375299721	0.5619112395625481	1.409521925046144e-07	1.19586044965769e-06	-3.234401556150526e-07	8.423822332471873e-08	3.669504674354061e-07	1.452611748889351e-08	2.070986421837725e-07
1.53	-0.07516657793681047	-0.05708686907082322	0.8461907607022555	0.7744199630987036	-0.3211225785873328	-0.1480823057750647	-0.7881339524453933	0.6857591542464906	0.6857591542460792	-0.1242750065686064	-0.1693601839726078	0.03327215950339612	-0.01658573039261869	0.6025366488504921	0.3657658359836123	0.4754790971213149	-2.451410455707376	0.09687501727213389	-0.6010988269872287	0.8899824671294597	-1.91752093024464	-1.91752093024464	-0.1409887590348692	0.04533958914352739	-0.1678555038709642	0.05408210914760249	-0.2373877945612395	0.005688410554070074	-0.0006301639221603405	-0.1895384572876609	0.1326469970494989	0.04854915161823293	0.2937982304397517	1.01894878254092	-22.63995634307498	4.727585376881424	-13.68875751596821	-653.564329519352	-79.23213983046975	-18.32675392181569	0.1003019295686506	0.8743966351811701	-0.7911517076079433	-0.5659504930380816	0.4995868319323309	-0.07284142682682931	2.090627266319549	-0.49878784929263	-0.4987878493334085	-0.1066135931651778	0.2022264106827792	0.07753764341789296	0.5340804064334418	1.176137203011737e-07	1.282231219043105e-06	-2.24469999548285e-07	1.14557414189313e-07	3.487573741989533e-07	3.481091703575831e-08	2.015335461376626e-07
1.54	-0.06913732312598336	-0.05338591837438273	0.8509050319019674	0.7498812127646904	-0.3201285658091982	-0.1540953962148787	-0.7791306164539711	0.6665618175759974	0.6665618175755983	-0.1256896438925023	-0.1688956669452054	0.03159823981878161	-0.01601769721753133	0.6032230431548276	0.3743846817767963	0.4672802554576013	-2.456023907295093	0.1019159241529669	-0.6014406888297212	0.9105618008192804	-1.921684055581574	-1.921684055581847	-0.1419320904751818	0.04756811905248992	-0.1668705397016175	0.05952832792838112	-0.2277668774935008	0.005189684632525787	-0.0005297720901790258	-0.186667557609935	0.1308029256031064	0.04748029234383336	0.2851183223762637	0.7227203054746546	-22.1775417708367	4.715154800981174	-13.26126575814004	-648.2537479592738	-79.07208831282574	-18.93282018193137	0.03269433664194164	0.8486946096016297	-0.8490184820710734	-0.3468535880600574	0.5169396529260536	0.01917527161521218	2.029424675432381	-0.3299869624727186	-0.3299869624727187	-0.07223963393293195	0.2629683234919113	0.1229727459252963	0.5649461050059045	1.004789386252114e-07	1.349201307844496e-06	-1.545465006888042e-07	1.336480156238381e-07	3.429445937347264e-07	5.418553339865408e-08	1.967852839074098e-07
1.55	-0.06310399589964219	-0.04960008516183985	0.8555345393386368	0.7253059744180578	-0.3190844862375805	-0.1601098167108256	-0.7699254354663432	0.6473308225040718	0.6473308225039889	-0.1271131722109214	-0.1684089444010706	0.02993590345927841	-0.01539507491753011	0.6033455130277097	0.3827292096333388	0.4585318748207594	-2.458684575140339	0.1068873982889774	-0.6013757317980117	0.9303237626671356	-1.924235642503087	-1.924235642503366	-0.1427491055184225	0.04976979424522186	-0.1655391749868774	0.06499946539313066	-0.2179627600444402	0.004490586574780774	-0.0004862419014795411	-0.1839537762164309	0.1290065085861714	0.0463288967942591	0.2762147525531041	0.4306924806576569	-21.67733142479876	4.693630594322782	-12.73418072899053	-643.014514557506	-78.87594779937706	-19.51308202122077	-0.01251454938286868	0.8194478532899354	-0.9010801944641543	-0.1747964984018632	0.4851591486872364	0.01048843568029942	1.926986833417943	-0.175885284826669	-0.1758852848276601	-0.08250376054326604	0.1977126130633229	0.146889159525213	0.5384840043536959	9.049188733960419e-08	1.393818438581685e-06	-1.180898025246738e-07	1.398013292367626e-07	3.513960866819764e-07	7.251146044088995e-08	1.929781562910792e-07
1.56	-0.05707235154697719	-0.04573238347481007	0.8600738965009433	0.7007143047698351	-0.3179911103536538	-0.1661215211331058	-0.7605271538814471	0.6280826834173725	0.6280826834175963	-0.1285440849439902	-0.1679004160058112	0.02828861491197792	-0.01471768395545256	0.6028864684208358	0.3907583766741761	0.4492502005850336	-2.459310167611386	0.1117751866149328	-0.6008974740970383	0.9491819202732393	-1.925112858538043	-1.925112858538329	-0.1434089734026069	0.05192928927393405	-0.163860977261062	0.07048206034364914	-0.2081586425953953	0.003791488517038807	-0.0004427117129154286	-0.1812399948229157	0.1272100915692429	0.04517750124469188	0.2673111827299273	0.1337552404992395	-21.17551281785676	4.670994990198406	-12.20842711175134	-637.8597814835338	-78.70921511119909	-20.06352606189888	-0.08360855930936563	0.7856224464607411	-0.955677201847802	0.06016148677950595	0.5002024909150293	0.1018354054680271	1.848663827082054	0.004887214838405143	0.004887214838405166	-0.04081020212169411	0.2545322906879543	0.1923393481405404	0.5672376021597283	1.058886433072778e-07	1.408759600957807e-06	-2.205702580119639e-07	1.26964227177579e-07	3.908785567468905e-07	1.042435846093377e-07	2.045695485094355e-07
